<?xml version="1.0" standalone="no"?>
<!DOCTYPE svg PUBLIC "-//W3C//DTD SVG 20010904//EN"
 "http://www.w3.org/TR/2001/REC-SVG-20010904/DTD/svg10.dtd">
<svg version="1.0" xmlns="http://www.w3.org/2000/svg"
 width="4397.000000pt" height="1337.000000pt" viewBox="0 0 4397.000000 1337.000000"
 preserveAspectRatio="xMidYMid meet">

<g transform="translate(0.000000,1337.000000) scale(0.100000,-0.100000)"
fill="#ffffff" stroke="none">
<path d="M42655 12369 c-187 -163 -272 -236 -301 -259 -17 -14 -72 -61 -121
-105 -49 -44 -147 -129 -218 -190 -70 -60 -174 -150 -230 -200 -57 -49 -162
-141 -234 -204 -72 -62 -131 -119 -131 -126 0 -8 15 -33 33 -57 37 -49 150
-203 213 -293 23 -33 60 -79 82 -103 l40 -43 44 22 c23 12 79 43 123 69 44 26
184 107 310 180 127 73 282 163 345 200 63 37 192 111 285 165 266 152 424
249 430 264 3 8 0 22 -7 31 -23 31 -122 158 -223 285 -33 42 -100 127 -148
188 -155 196 -190 237 -206 237 -9 0 -47 -28 -86 -61z"/>
<path d="M2915 10399 c-352 -29 -607 -84 -867 -188 -104 -41 -353 -169 -461
-236 -131 -82 -466 -357 -508 -417 -13 -18 -46 -58 -75 -88 -173 -186 -375
-514 -478 -780 -21 -52 -46 -115 -56 -140 -32 -80 -98 -351 -126 -520 -25
-151 -27 -187 -27 -435 0 -275 6 -344 57 -615 38 -202 138 -503 234 -700 65
-134 226 -383 336 -520 134 -167 464 -462 589 -526 17 -9 46 -27 62 -39 35
-27 335 -178 397 -201 165 -60 277 -94 413 -125 202 -47 499 -72 750 -64 274
10 608 72 805 150 47 18 96 37 110 41 48 13 346 167 430 222 316 204 559 441
770 747 168 243 326 592 389 859 53 222 63 269 78 376 23 168 23 646 0 795
-28 179 -46 260 -99 450 -21 77 -26 89 -88 250 -124 320 -348 662 -596 909
-128 129 -394 341 -482 385 -24 12 -65 38 -92 57 -105 75 -408 200 -630 260
-171 45 -368 77 -555 89 -49 3 -108 7 -130 9 -22 2 -89 0 -150 -5z m385 -1213
c116 -22 196 -45 284 -82 353 -149 616 -460 744 -879 65 -215 72 -252 96 -550
13 -149 -20 -429 -75 -640 -45 -175 -120 -340 -228 -502 -74 -111 -249 -282
-342 -334 -164 -92 -237 -123 -362 -153 -178 -42 -244 -49 -429 -43 -240 7
-403 45 -591 138 -129 64 -180 101 -301 218 -103 100 -202 238 -256 355 -70
153 -81 179 -89 214 -6 20 -19 69 -30 107 -45 154 -65 335 -65 570 1 240 12
335 64 533 113 432 366 765 715 939 94 47 280 101 400 118 129 17 351 13 465
-9z"/>
<path d="M13250 10399 c-287 -23 -564 -79 -760 -155 -52 -20 -111 -42 -130
-49 -53 -20 -294 -150 -395 -214 -127 -80 -229 -165 -391 -326 -159 -159 -225
-238 -341 -410 -148 -219 -314 -580 -364 -790 -11 -44 -28 -114 -39 -155 -11
-41 -26 -115 -34 -165 -8 -49 -22 -136 -31 -191 -22 -141 -23 -497 -1 -659 24
-174 46 -305 58 -344 6 -18 16 -59 23 -90 68 -302 253 -690 472 -988 241 -327
585 -616 944 -792 279 -137 411 -179 769 -245 177 -32 595 -30 775 4 279 52
346 68 490 119 184 65 236 87 340 143 275 149 436 269 630 470 281 291 479
654 590 1082 l25 98 0 582 c0 439 -3 585 -12 594 -9 9 -297 12 -1233 12 -1039
0 -1224 -2 -1241 -14 -18 -14 -19 -32 -22 -454 -2 -277 1 -449 7 -466 l11 -26
604 0 c511 0 605 -2 615 -14 9 -11 10 -38 2 -108 -13 -119 -73 -290 -137 -390
-62 -98 -200 -237 -304 -305 -97 -63 -255 -140 -315 -153 -22 -4 -67 -15 -99
-24 -277 -75 -620 -29 -866 115 -157 91 -217 140 -362 296 -106 115 -148 175
-222 315 -96 183 -159 368 -192 563 -28 162 -25 534 4 695 39 213 81 333 188
547 175 347 461 607 784 712 147 48 200 56 380 56 308 -1 511 -60 755 -220
107 -71 270 -233 356 -355 35 -49 70 -92 77 -95 16 -6 20 -1 260 265 92 101
217 238 277 303 165 178 265 295 265 310 0 7 -19 31 -41 52 -23 22 -64 67 -92
100 -27 33 -62 69 -77 80 -15 11 -66 54 -114 96 -93 83 -269 203 -418 285
-138 77 -356 158 -613 228 -99 27 -277 51 -495 66 -85 6 -175 12 -200 14 -25
2 -97 0 -160 -5z"/>
<path d="M6317 10298 c-16 -12 -17 -147 -15 -2703 l3 -2690 604 -3 c438 -1
608 1 617 9 12 10 14 185 14 1045 0 1123 -2 1077 54 997 14 -21 49 -68 78
-105 29 -37 103 -131 163 -209 61 -78 131 -170 158 -203 26 -34 92 -119 148
-191 101 -132 282 -366 409 -530 68 -87 172 -222 295 -382 216 -280 319 -410
333 -421 12 -9 184 -12 779 -12 662 0 764 2 769 15 6 14 -35 67 -181 241 -33
39 -91 109 -130 155 -38 46 -101 122 -141 169 -125 148 -326 390 -400 482 -40
48 -112 134 -160 190 -49 56 -118 138 -154 183 -36 45 -125 154 -198 241 -73
87 -161 193 -195 234 -34 41 -104 123 -154 183 -51 59 -93 116 -93 127 0 13
15 25 46 40 26 11 52 20 58 20 19 0 132 57 231 116 156 93 323 244 441 399 50
65 142 227 163 286 11 30 31 82 45 116 14 33 30 87 35 120 5 32 18 92 29 134
30 112 40 453 18 599 -44 283 -130 512 -261 695 -92 128 -285 314 -375 360
-19 10 -49 28 -66 41 -72 55 -329 158 -469 188 -44 10 -109 24 -144 32 -143
33 -252 37 -1291 41 -850 3 -1048 2 -1063 -9z m1830 -1016 c187 -41 330 -118
414 -224 91 -116 121 -208 127 -398 6 -188 -7 -271 -59 -379 -31 -66 -55 -100
-112 -155 -84 -83 -137 -113 -267 -154 -140 -45 -247 -57 -490 -57 l-215 0 -3
685 c-1 377 0 691 3 699 9 22 480 9 602 -17z"/>
<path d="M18683 10287 c-19 -24 -45 -79 -86 -182 -42 -104 -69 -167 -117 -280
-26 -60 -62 -146 -80 -190 -18 -44 -50 -120 -72 -170 -22 -49 -44 -106 -50
-125 -6 -19 -14 -40 -20 -47 -5 -6 -29 -60 -53 -120 -23 -59 -63 -155 -88
-213 -25 -58 -55 -130 -67 -160 -37 -91 -66 -160 -115 -270 -26 -58 -53 -124
-60 -146 -7 -23 -21 -57 -31 -75 -18 -35 -75 -171 -123 -294 -15 -38 -44 -106
-63 -150 -20 -44 -50 -116 -68 -160 -18 -44 -48 -116 -67 -160 -20 -44 -44
-102 -53 -130 -10 -27 -33 -82 -53 -122 -19 -39 -41 -91 -50 -115 -8 -23 -37
-92 -62 -153 -26 -60 -58 -137 -72 -170 -34 -84 -56 -136 -103 -245 -23 -52
-57 -133 -75 -180 -18 -47 -40 -98 -48 -115 -20 -38 -73 -164 -96 -230 -10
-27 -37 -90 -60 -139 -22 -49 -41 -94 -41 -100 0 -6 -16 -44 -35 -85 -19 -40
-35 -77 -35 -83 0 -5 -17 -49 -39 -96 -101 -228 -170 -391 -206 -487 -12 -33
-34 -84 -49 -114 -15 -29 -25 -59 -22 -67 5 -12 110 -14 693 -12 l688 3 22 45
c12 25 42 99 66 165 25 66 53 140 62 165 10 25 27 72 40 105 12 33 31 83 43
110 23 55 78 197 122 315 15 41 37 98 49 125 11 28 34 88 52 135 17 47 42 112
54 145 65 167 79 205 100 260 12 33 32 83 43 110 24 60 88 227 118 310 12 33
47 125 79 205 31 80 63 163 70 186 7 23 25 64 39 92 14 28 26 57 26 64 0 14
80 225 112 298 11 25 40 99 64 165 69 192 93 254 109 285 8 16 27 67 42 112
40 126 51 134 81 56 11 -29 37 -96 57 -148 21 -52 60 -153 87 -225 75 -197 99
-262 188 -490 45 -115 102 -264 127 -330 25 -66 60 -158 78 -205 18 -47 58
-150 88 -230 30 -80 68 -179 85 -220 17 -41 49 -124 72 -185 23 -60 54 -144
70 -185 15 -41 42 -111 60 -155 18 -44 36 -91 40 -105 5 -14 27 -72 50 -130
23 -58 59 -152 82 -210 22 -58 55 -143 73 -190 18 -47 60 -159 94 -249 34 -91
69 -173 78 -183 15 -17 52 -18 694 -18 655 0 678 1 684 19 3 11 -15 65 -46
137 -28 65 -57 135 -65 154 -13 37 -72 175 -149 355 -63 146 -121 284 -155
370 -15 39 -69 167 -120 285 -51 118 -103 242 -115 275 -13 33 -36 87 -51 120
-14 33 -57 134 -94 225 -37 91 -91 219 -120 285 -28 66 -60 143 -70 170 -9 28
-27 69 -39 92 -11 23 -31 70 -45 105 -13 34 -35 88 -49 118 -15 30 -51 116
-81 190 -30 74 -82 200 -116 280 -34 80 -73 172 -86 205 -13 33 -31 74 -38 90
-8 17 -30 68 -49 115 -19 47 -70 168 -112 270 -43 102 -94 226 -115 276 -21
51 -46 107 -56 125 -9 19 -45 104 -80 189 -88 219 -156 381 -199 480 -20 47
-56 132 -80 190 -61 149 -110 257 -125 275 -11 13 -72 15 -480 15 l-469 0 -18
-23z"/>
<path d="M22706 10294 c-14 -14 -16 -272 -16 -2693 0 -2069 3 -2680 12 -2689
15 -15 1194 -17 1218 -2 13 8 15 205 17 1657 2 916 7 1649 11 1651 9 3 47 -54
291 -433 67 -104 179 -278 248 -385 69 -107 158 -247 198 -310 40 -63 139
-218 220 -345 82 -126 190 -295 241 -375 51 -80 130 -203 177 -275 46 -71 98
-152 116 -180 30 -48 123 -193 346 -540 55 -85 142 -222 193 -303 51 -81 100
-153 109 -160 13 -9 153 -12 620 -12 585 0 603 1 613 19 7 14 10 866 10 2683
0 2395 -2 2666 -16 2686 l-15 22 -593 0 c-447 0 -595 -3 -604 -12 -9 -9 -12
-391 -12 -1659 0 -1674 -1 -1702 -34 -1645 -6 10 -36 57 -67 105 -55 83 -131
202 -303 473 -102 161 -300 468 -426 663 -103 159 -238 370 -317 495 -45 73
-134 210 -219 340 -23 36 -100 155 -170 265 -70 110 -162 254 -204 320 -42 66
-133 208 -202 315 -68 107 -137 215 -153 240 -16 25 -40 57 -54 73 l-25 27
-597 0 c-530 0 -599 -2 -613 -16z"/>
<path d="M28128 10303 c-10 -2 -18 -10 -18 -16 -3 -1151 2 -5372 6 -5378 3 -5
255 -9 609 -9 587 0 605 1 615 19 7 14 10 868 10 2690 0 2414 -2 2671 -16
2685 -14 14 -81 16 -602 15 -323 -1 -595 -3 -604 -6z"/>
<path d="M30233 10303 c-10 -4 -13 -121 -13 -538 0 -521 0 -535 20 -545 13 -7
370 -10 1125 -10 608 0 1110 -2 1115 -5 13 -8 8 -17 -103 -195 -49 -80 -107
-172 -127 -205 -21 -33 -84 -136 -141 -228 -57 -93 -127 -205 -155 -250 -27
-45 -98 -158 -155 -252 -58 -93 -130 -208 -159 -255 -29 -47 -66 -107 -82
-135 -16 -27 -40 -66 -52 -85 -30 -46 -85 -136 -186 -300 -46 -74 -104 -169
-130 -210 -44 -70 -131 -210 -259 -417 -30 -49 -77 -124 -104 -168 -27 -44
-101 -163 -164 -265 -131 -213 -162 -262 -213 -345 -138 -222 -277 -446 -334
-540 -78 -128 -184 -297 -233 -373 -19 -30 -32 -60 -29 -68 5 -12 338 -14
2310 -14 2082 0 2306 2 2320 16 14 14 16 75 16 522 0 443 -2 510 -16 530 l-15
22 -1224 0 c-867 0 -1226 3 -1231 11 -3 6 10 34 29 62 19 29 72 113 118 187
89 146 189 307 374 605 124 199 168 271 236 383 23 37 56 90 74 117 18 28 45
70 59 95 15 25 58 95 96 155 38 61 102 163 142 228 40 66 89 144 109 175 19
32 54 86 76 122 22 36 91 147 154 248 63 101 123 197 133 215 11 18 71 115
134 217 63 102 128 208 145 235 17 28 56 91 88 140 31 50 87 140 124 200 37
61 108 175 158 255 50 80 121 195 158 255 38 61 88 142 112 180 97 157 118
196 115 213 -3 16 -124 17 -2203 19 -1210 1 -2206 -1 -2212 -4z"/>
<path d="M37433 10300 c-12 -5 -25 -22 -29 -37 -4 -15 -24 -65 -44 -110 -21
-44 -43 -98 -50 -120 -7 -21 -26 -64 -42 -96 -15 -31 -40 -88 -54 -125 -60
-156 -74 -191 -113 -275 -23 -49 -41 -94 -41 -99 0 -6 -15 -43 -34 -82 -18
-40 -37 -83 -41 -97 -4 -13 -22 -58 -40 -99 -67 -149 -133 -306 -143 -335 -14
-40 -93 -226 -126 -295 -14 -30 -26 -61 -26 -68 0 -7 -11 -35 -25 -63 -15 -28
-39 -83 -55 -122 -46 -117 -79 -196 -124 -302 -24 -55 -58 -136 -76 -180 -18
-44 -55 -130 -81 -191 -27 -61 -49 -117 -49 -123 0 -6 -14 -40 -31 -74 -18
-34 -42 -89 -54 -122 -32 -85 -108 -263 -132 -310 -12 -22 -25 -56 -31 -75 -6
-19 -33 -87 -60 -150 -27 -63 -60 -140 -72 -170 -13 -30 -38 -89 -56 -130 -45
-103 -114 -269 -124 -301 -4 -15 -26 -66 -49 -114 -23 -48 -41 -92 -41 -97 0
-5 -10 -30 -21 -56 -22 -47 -72 -165 -139 -327 -20 -49 -45 -105 -54 -124 -10
-18 -26 -57 -36 -85 -10 -28 -30 -80 -45 -116 -25 -62 -36 -85 -93 -210 -13
-30 -25 -68 -26 -85 l-1 -30 688 -3 688 -2 13 32 c7 18 32 83 55 143 23 61 51
133 62 160 26 61 67 171 109 285 17 47 44 117 60 155 36 87 107 276 125 331 7
23 20 55 28 70 8 16 40 99 72 184 31 85 67 180 81 210 25 58 90 230 129 340
12 36 32 83 44 105 11 22 21 46 21 55 0 8 20 64 44 125 24 60 65 166 91 235
26 69 59 152 72 185 14 33 31 79 39 103 7 24 24 69 38 100 24 55 57 142 115
302 16 41 35 89 43 105 9 17 21 46 26 65 38 125 76 210 93 210 11 0 35 -53 79
-170 15 -41 44 -118 65 -170 42 -108 146 -378 200 -520 20 -52 61 -160 92
-240 30 -80 71 -185 89 -235 19 -49 43 -110 54 -135 11 -25 33 -81 49 -125 16
-44 45 -120 64 -170 19 -49 57 -148 84 -220 28 -71 72 -186 98 -255 68 -182
144 -378 165 -430 11 -25 38 -94 60 -155 23 -60 75 -198 117 -305 42 -107 87
-227 102 -266 14 -39 32 -78 40 -88 12 -15 74 -16 693 -16 621 0 679 1 685 16
3 10 1 29 -5 43 -6 14 -39 96 -74 181 -35 85 -78 187 -95 225 -57 127 -104
238 -165 390 -33 83 -72 175 -88 206 -15 30 -35 80 -45 110 -10 30 -21 59 -25
64 -4 6 -20 42 -35 80 -15 39 -36 87 -46 107 -11 21 -30 66 -43 100 -13 35
-44 113 -70 173 -63 146 -80 189 -109 260 -14 33 -48 114 -77 180 -29 66 -65
152 -80 190 -15 39 -49 120 -75 180 -26 61 -77 184 -115 275 -37 91 -81 197
-98 235 -17 39 -42 97 -55 130 -51 124 -88 211 -102 240 -8 17 -30 68 -49 115
-18 47 -55 135 -80 195 -26 61 -54 130 -63 155 -8 25 -28 70 -42 100 -15 30
-33 71 -41 90 -7 19 -29 71 -48 115 -35 79 -131 309 -199 475 -68 167 -127
305 -135 316 -4 6 -17 37 -28 68 -10 31 -35 91 -54 134 -19 42 -49 112 -66
155 -18 43 -39 84 -47 92 -12 13 -84 15 -476 14 -254 0 -472 -4 -484 -9z"/>
<path d="M41450 10290 c-20 -20 -20 -33 -20 -2686 0 -1818 3 -2671 10 -2685
10 -18 28 -19 615 -19 587 0 605 1 615 19 7 14 10 866 10 2683 0 2395 -2 2666
-16 2686 l-15 22 -590 0 c-576 0 -589 0 -609 -20z"/>
<path d="M1787 2600 c-236 -50 -347 -193 -347 -443 1 -214 58 -336 195 -412
97 -55 165 -65 435 -65 268 0 329 10 420 65 120 73 175 165 191 322 32 312
-97 497 -376 539 -134 20 -409 17 -518 -6z m488 -194 c50 -21 72 -41 99 -91
18 -35 21 -56 21 -170 -1 -114 -4 -135 -23 -172 -27 -51 -65 -79 -127 -93
-124 -28 -371 -15 -433 22 -43 26 -67 76 -82 171 -13 85 -2 195 25 247 20 39
69 78 113 89 20 5 46 12 57 15 11 3 85 4 165 2 108 -2 155 -7 185 -20z"/>
<path d="M4281 2604 c-78 -21 -117 -42 -152 -82 -96 -109 -91 -259 11 -363 78
-78 96 -81 472 -88 l326 -6 26 -24 c40 -38 36 -90 -9 -130 l-36 -31 -382 0
c-210 0 -388 -4 -395 -8 -9 -6 -12 -33 -10 -98 l3 -89 460 0 c505 0 481 -3
570 62 52 38 95 123 102 201 11 120 -53 224 -169 277 l-63 29 -315 4 c-338 5
-364 8 -376 56 -10 40 -1 68 29 90 27 20 42 21 423 26 336 4 396 7 404 20 16
26 12 136 -6 154 -14 14 -67 16 -437 15 -335 0 -433 -3 -476 -15z"/>
<path d="M5983 2605 c-127 -34 -219 -112 -263 -222 -20 -49 -24 -80 -28 -206
-6 -230 27 -328 145 -424 88 -71 104 -73 538 -73 283 0 384 3 393 12 7 7 12
43 12 90 0 66 -3 79 -19 88 -13 6 -140 10 -346 10 -352 0 -377 3 -410 53 -25
38 -36 87 -24 108 9 18 28 19 378 19 304 0 371 2 380 14 8 9 11 43 9 93 l-3
78 -378 5 c-409 5 -404 5 -391 59 8 36 43 81 71 92 13 5 174 9 356 9 396 0
377 -5 377 101 0 119 35 109 -383 108 -278 0 -374 -4 -414 -14z"/>
<path d="M7202 2608 c-9 -9 -12 -89 -12 -299 0 -260 2 -293 20 -353 38 -123
130 -209 266 -251 76 -24 92 -25 328 -25 268 0 322 7 419 56 63 32 129 99 162
164 37 73 47 176 43 458 -3 203 -5 244 -18 252 -23 14 -233 13 -248 -2 -9 -9
-12 -74 -12 -229 0 -330 -20 -403 -128 -466 -45 -27 -55 -28 -193 -31 -180 -5
-216 4 -281 67 -70 66 -78 104 -78 407 0 173 -3 243 -12 252 -8 8 -51 12 -128
12 -77 0 -120 -4 -128 -12z"/>
<path d="M10303 2606 c-58 -14 -120 -53 -142 -88 -26 -41 -92 -180 -121 -252
-46 -116 -79 -195 -124 -301 -71 -165 -108 -264 -101 -275 4 -6 61 -10 140
-10 156 0 143 -8 195 125 17 44 40 100 51 125 12 25 27 63 34 85 7 22 33 87
58 145 94 223 100 230 205 230 102 0 115 -19 266 -400 109 -276 117 -294 130
-302 6 -4 68 -8 137 -8 158 0 161 3 119 91 -16 35 -30 69 -30 76 0 7 -12 38
-26 69 -14 31 -32 73 -39 93 -63 169 -203 473 -237 515 -16 19 -54 47 -86 63
-55 27 -64 28 -217 30 -106 2 -178 -2 -212 -11z"/>
<path d="M11747 2599 c-89 -29 -145 -72 -174 -136 -34 -73 -38 -119 -19 -185
23 -80 65 -132 138 -170 l63 -32 331 -6 c314 -5 333 -6 354 -25 52 -46 45
-108 -15 -145 -31 -19 -49 -20 -412 -20 -281 0 -382 -3 -391 -12 -16 -16 -16
-160 0 -176 9 -9 121 -12 443 -12 479 0 487 1 574 67 79 60 111 126 111 230 0
108 -63 199 -179 255 -43 21 -61 22 -369 26 l-324 5 -29 25 c-25 20 -30 31
-27 61 2 27 11 40 37 58 34 23 35 23 420 23 288 0 390 3 399 12 7 7 12 41 12
83 0 42 -5 76 -12 83 -9 9 -120 12 -443 11 -391 -1 -435 -3 -488 -20z"/>
<path d="M13384 2601 c-121 -34 -194 -119 -202 -233 -9 -133 61 -236 192 -281
17 -6 175 -13 354 -16 l324 -6 29 -33 c39 -43 37 -76 -5 -118 l-34 -34 -389 0
c-289 0 -392 -3 -401 -12 -16 -16 -16 -160 0 -176 19 -19 845 -17 915 2 135
36 216 138 216 271 0 127 -53 208 -173 264 -55 25 -57 25 -372 29 -286 4 -319
6 -347 23 -60 36 -49 105 21 133 32 14 98 16 411 16 277 0 376 3 385 12 7 7
12 41 12 83 0 42 -5 76 -12 83 -9 9 -119 12 -438 11 -374 0 -432 -3 -486 -18z"/>
<path d="M14851 2606 c-8 -9 -10 -140 -9 -467 l3 -454 135 0 135 0 3 454 c1
327 -1 458 -9 467 -9 10 -42 14 -129 14 -87 0 -120 -4 -129 -14z"/>
<path d="M15738 2605 c-112 -31 -187 -105 -209 -205 -27 -126 42 -255 159
-301 54 -21 76 -23 383 -28 353 -6 345 -5 375 -64 19 -35 6 -76 -34 -107 -24
-19 -42 -20 -411 -20 -288 0 -390 -3 -399 -12 -14 -14 -16 -155 -4 -176 12
-18 889 -12 944 6 51 17 134 95 164 153 31 63 33 163 3 229 -29 65 -93 126
-159 152 -51 20 -76 22 -373 26 l-318 4 -30 25 c-40 34 -38 86 4 117 27 20 42
21 423 26 336 4 396 7 404 20 13 20 13 127 0 151 -10 18 -25 19 -443 18 -321
-1 -444 -4 -479 -14z"/>
<path d="M17160 2601 c-13 -24 -13 -151 0 -171 7 -12 44 -16 192 -20 l183 -5
3 -349 c1 -237 6 -354 13 -363 16 -19 242 -19 258 0 7 9 12 126 13 363 l3 349
180 5 c99 3 186 9 193 13 16 11 17 168 0 185 -9 9 -138 12 -520 12 -491 0
-508 -1 -518 -19z"/>
<path d="M18915 2605 c-93 -20 -112 -31 -180 -96 -49 -46 -70 -76 -89 -125
-25 -61 -26 -74 -26 -243 l0 -179 40 -80 c45 -90 87 -132 170 -171 l55 -26
405 0 405 0 3 83 c2 53 -1 89 -9 98 -9 12 -73 14 -356 14 l-345 0 -38 38 c-41
41 -60 103 -39 128 9 12 72 14 373 14 198 0 367 4 374 9 9 5 12 31 10 92 l-3
84 -370 5 c-203 3 -376 9 -382 13 -17 11 -16 40 2 83 26 62 41 64 423 64 249
0 341 3 350 12 7 7 12 43 12 93 0 50 -5 86 -12 93 -18 18 -691 15 -773 -3z"/>
<path d="M20130 2610 c-13 -8 -15 -72 -18 -456 -2 -326 1 -450 9 -460 15 -18
249 -20 267 -2 9 9 12 93 12 315 0 236 3 303 13 303 11 0 96 -94 300 -333 44
-51 119 -138 169 -194 l90 -103 198 0 c171 0 199 2 204 16 12 31 7 899 -5 911
-12 12 -247 7 -261 -6 -3 -3 -7 -141 -9 -306 -2 -165 -5 -306 -7 -312 -4 -14
-32 -18 -32 -5 0 4 -44 57 -97 118 -54 61 -127 146 -163 189 -36 43 -116 136
-179 207 l-113 128 -182 0 c-99 0 -188 -5 -196 -10z"/>
<path d="M21826 2604 c-12 -11 -16 -35 -16 -89 0 -107 -4 -105 205 -105 128 0
176 -3 182 -12 4 -7 8 -166 9 -353 0 -187 3 -346 8 -353 11 -18 240 -17 255 1
7 9 12 126 13 363 l3 349 183 5 c148 4 185 8 192 20 14 22 12 164 -2 178 -9 9
-137 12 -514 12 -444 0 -504 -2 -518 -16z"/>
<path d="M23583 2609 c-141 -27 -239 -113 -285 -249 -17 -52 -19 -80 -16 -233
l3 -173 34 -68 c40 -82 97 -140 171 -175 l55 -26 405 0 405 0 3 83 c2 53 -1
89 -9 98 -9 11 -70 14 -341 14 -350 0 -372 3 -416 50 -26 28 -39 95 -22 115
11 13 69 15 379 15 272 0 370 3 379 12 7 7 12 41 12 83 0 42 -5 76 -12 83 -9
9 -104 12 -364 12 -216 0 -363 4 -380 10 -24 9 -26 14 -21 47 4 22 19 49 37
68 l30 30 353 5 c193 3 358 9 365 13 16 11 17 168 0 185 -14 14 -695 15 -765
1z"/>
<path d="M25731 2606 c-8 -9 -10 -140 -9 -467 l3 -454 129 -3 c81 -2 133 1
140 8 7 7 9 62 7 154 -2 90 1 152 8 164 10 20 22 21 268 24 302 5 325 10 409
92 55 54 94 137 94 200 0 96 -69 205 -159 251 -79 39 -144 45 -522 45 -289 0
-359 -3 -368 -14z m730 -204 c44 -40 45 -94 2 -132 -27 -24 -43 -29 -115 -35
-45 -4 -137 -5 -202 -2 -144 5 -149 8 -143 108 2 37 7 72 11 78 5 7 71 11 211
11 l205 0 31 -28z"/>
<path d="M27190 2601 c-15 -30 -14 -893 2 -909 8 -8 52 -12 134 -12 101 0 124
3 135 17 11 13 14 86 15 366 2 282 5 351 15 359 8 5 99 8 206 6 220 -4 237
-10 262 -87 16 -51 9 -81 -28 -124 l-29 -32 -179 -3 c-98 -2 -182 -7 -186 -12
-12 -10 65 -95 284 -312 l179 -178 140 0 c119 0 142 2 147 16 4 11 -33 55
-126 148 -72 72 -131 135 -131 139 0 4 26 19 58 33 112 50 143 98 150 235 9
184 -20 268 -108 318 -85 48 -119 51 -537 51 -378 0 -393 -1 -403 -19z"/>
<path d="M29010 2600 c-110 -23 -134 -33 -198 -82 -104 -78 -153 -197 -151
-371 0 -126 20 -213 61 -277 57 -88 119 -131 242 -169 61 -19 92 -21 312 -21
139 0 266 5 296 11 79 17 182 74 233 131 68 76 88 139 93 288 6 199 -23 296
-113 379 -69 64 -171 108 -280 120 -144 17 -396 13 -495 -9z m492 -198 c89
-39 126 -143 113 -309 -13 -155 -60 -204 -215 -222 -139 -16 -316 -1 -369 32
-22 13 -42 39 -60 76 -23 50 -26 68 -25 166 0 93 3 118 23 163 44 99 114 123
341 118 120 -2 153 -6 192 -24z"/>
<path d="M30632 2605 c-87 -19 -145 -51 -198 -107 -87 -93 -88 -98 -94 -468
-3 -184 -2 -330 4 -337 12 -18 247 -18 264 -1 8 8 12 64 12 184 0 147 2 173
16 178 9 3 177 6 374 6 411 0 380 -8 380 95 0 103 30 95 -370 95 -202 0 -359
4 -374 10 -21 8 -26 16 -26 43 0 18 7 43 16 56 34 48 59 51 418 51 335 0 335
0 350 22 11 15 16 45 16 86 0 111 32 102 -373 101 -257 0 -369 -4 -415 -14z"/>
<path d="M31855 2608 c-3 -7 -4 -218 -3 -468 l3 -455 135 0 135 0 3 454 c1
327 -1 458 -9 467 -16 19 -257 20 -264 2z"/>
<path d="M32751 2604 c-61 -17 -126 -58 -165 -104 -27 -33 -56 -115 -56 -160
0 -86 74 -191 168 -237 l57 -28 320 -5 c287 -4 324 -7 348 -23 57 -37 57 -102
-1 -147 -24 -19 -42 -20 -411 -20 -288 0 -390 -3 -399 -12 -7 -7 -12 -42 -12
-88 0 -46 5 -81 12 -88 9 -9 123 -12 453 -11 485 0 473 -1 568 66 60 41 96
106 109 190 8 60 7 75 -11 123 -29 77 -69 121 -146 160 l-67 34 -325 4 -324 5
-30 24 c-46 39 -36 98 21 128 24 13 90 15 414 15 378 0 385 0 399 21 17 23 12
134 -6 157 -15 19 -842 16 -916 -4z"/>
<path d="M34369 2597 c-69 -23 -129 -63 -154 -101 -8 -12 -24 -48 -35 -80 -17
-49 -18 -65 -9 -109 21 -98 71 -163 158 -205 l56 -27 325 -5 c289 -4 329 -7
353 -23 53 -34 47 -104 -12 -144 -34 -23 -35 -23 -412 -23 -330 0 -380 -2
-393 -16 -20 -19 -23 -153 -4 -172 9 -9 121 -12 443 -12 489 0 499 1 588 73
94 76 128 197 88 312 -25 71 -64 113 -145 156 l-61 33 -329 4 -330 5 -28 28
c-36 36 -36 68 3 105 l30 29 400 3 400 3 10 27 c11 27 7 131 -6 151 -4 8 -142
11 -438 10 -418 0 -434 -1 -498 -22z"/>
<path d="M35842 2612 c-10 -7 -12 -107 -10 -468 l3 -459 135 0 135 0 3 459 c2
361 0 461 -10 468 -7 4 -65 8 -128 8 -63 0 -121 -4 -128 -8z"/>
<path d="M36940 2613 c-77 -8 -182 -34 -222 -54 -58 -29 -145 -119 -169 -175
-31 -68 -45 -223 -31 -334 20 -160 81 -254 205 -315 100 -49 147 -55 417 -55
266 0 339 12 427 68 130 84 183 200 183 404 0 269 -117 413 -370 454 -78 13
-346 17 -440 7z m405 -207 c84 -36 114 -90 122 -220 8 -135 -8 -200 -63 -253
-57 -56 -100 -66 -258 -65 -162 1 -212 8 -261 35 -67 38 -80 78 -80 247 0 135
2 148 23 183 47 74 134 98 337 93 101 -3 151 -8 180 -20z"/>
<path d="M38191 2606 c-8 -9 -10 -140 -9 -467 l3 -454 130 -3 c113 -2 131 0
142 15 10 13 13 91 13 315 0 232 3 298 13 298 6 0 44 -37 82 -82 39 -45 104
-120 145 -167 42 -47 119 -138 171 -201 53 -63 110 -130 127 -147 l30 -33 196
0 c183 0 196 1 206 19 16 30 14 882 -2 904 -12 15 -27 16 -138 9 l-125 -7 -5
-319 c-3 -200 -9 -321 -15 -323 -6 -2 -38 30 -72 69 -378 444 -458 537 -484
561 l-29 27 -184 0 c-143 0 -186 -3 -195 -14z"/>
<path d="M40412 2609 c-88 -15 -149 -56 -194 -129 -22 -37 -160 -357 -249
-580 -56 -141 -75 -198 -67 -207 7 -9 48 -13 139 -13 123 0 129 1 144 23 8 13
42 92 75 177 60 154 144 355 183 439 24 52 62 71 140 71 41 0 61 -6 82 -22 27
-21 83 -130 130 -253 13 -33 45 -116 72 -185 28 -69 58 -146 67 -173 29 -77
30 -78 179 -75 117 3 132 5 135 21 4 20 -146 395 -267 667 -68 153 -112 204
-200 231 -48 14 -302 20 -369 8z"/>
<path d="M41632 2608 c-9 -9 -12 -90 -12 -303 0 -265 2 -296 20 -351 38 -111
123 -195 248 -246 55 -22 68 -23 412 -26 409 -3 380 -11 380 99 0 105 18 99
-328 99 -267 0 -301 2 -337 19 -50 22 -93 71 -99 114 -3 18 -7 154 -8 303 -3
210 -6 275 -17 288 -11 13 -34 16 -130 16 -78 0 -121 -4 -129 -12z"/>
</g>
</svg>
